<svg width="32" height="32" viewBox="0 0 32 32" fill="none" xmlns="http://www.w3.org/2000/svg">
<path d="M5.33301 24.0001C5.33301 22.5856 5.89491 21.229 6.8951 20.2288C7.8953 19.2287 9.25185 18.6667 10.6663 18.6667H21.333C22.7475 18.6667 24.104 19.2287 25.1042 20.2288C26.1044 21.229 26.6663 22.5856 26.6663 24.0001C26.6663 24.7073 26.3854 25.3856 25.8853 25.8857C25.3852 26.3858 24.7069 26.6667 23.9997 26.6667H7.99967C7.29243 26.6667 6.61415 26.3858 6.11406 25.8857C5.61396 25.3856 5.33301 24.7073 5.33301 24.0001Z" stroke="#0B0B0B" stroke-width="2.3" stroke-linejoin="round"/>
<path d="M15.9998 13.3334C18.2089 13.3334 19.9998 11.5425 19.9998 9.33337C19.9998 7.12424 18.2089 5.33337 15.9998 5.33337C13.7906 5.33337 11.9998 7.12424 11.9998 9.33337C11.9998 11.5425 13.7906 13.3334 15.9998 13.3334Z" stroke="#0B0B0B" stroke-width="2.3"/>
</svg>
