<svg width="32" height="32" viewBox="0 0 32 32" fill="none" xmlns="http://www.w3.org/2000/svg">
<path d="M10.7961 21.614C11.1484 21.8631 11.5695 21.9964 12.001 21.9953C12.4325 21.9942 12.853 21.8589 13.2041 21.608C13.5601 21.348 13.8301 20.988 13.9781 20.572L14.8721 17.826C15.1021 17.138 15.4881 16.512 16.0001 15.998C16.5134 15.4854 17.1383 15.0987 17.8261 14.868L20.6081 13.966C20.9118 13.8571 21.1862 13.6795 21.41 13.4471C21.6338 13.2146 21.8008 12.9336 21.8981 12.626C21.982 12.3635 22.0128 12.087 21.9888 11.8125C21.9648 11.538 21.8863 11.2711 21.7581 11.0272C21.6298 10.7833 21.4543 10.5675 21.2417 10.3921C21.0292 10.2168 20.7839 10.0855 20.5201 10.006L17.7701 9.11198C17.0813 8.88311 16.4552 8.49703 15.9414 7.98431C15.4277 7.47159 15.0403 6.84631 14.8101 6.15798L13.9061 3.38198C13.7881 3.05119 13.5885 2.75555 13.3258 2.52246C13.0631 2.28937 12.7458 2.12637 12.4033 2.04858C12.0609 1.97079 11.7043 1.98073 11.3667 2.07747C11.0291 2.17421 10.7214 2.35462 10.4721 2.60198C10.241 2.83024 10.0657 3.10882 9.96005 3.41598L9.04605 6.21598C8.81859 6.88656 8.44086 7.49628 7.94171 7.99855C7.44256 8.50082 6.83521 8.88234 6.16605 9.11398L3.38405 10.01C3.08176 10.121 2.80869 10.2993 2.58554 10.5315C2.36238 10.7636 2.195 11.0435 2.09605 11.35C2.00011 11.6576 1.97619 11.9832 2.02613 12.3015C2.07606 12.6199 2.19853 12.9225 2.38405 13.186C2.64005 13.546 3.00205 13.816 3.41805 13.958L6.16605 14.848C6.85812 15.0778 7.48663 15.4668 8.00106 15.9836C8.51549 16.5005 8.90149 17.1308 9.12805 17.824L10.0321 20.606C10.1761 21.014 10.4441 21.366 10.7961 21.614ZM23.0701 29.698C23.3402 29.8906 23.6636 29.9945 23.9954 29.9952C24.3272 29.9959 24.651 29.8934 24.9221 29.702C25.2021 29.506 25.4123 29.2257 25.5221 28.902L26.0181 27.378C26.1223 27.0606 26.2997 26.7721 26.536 26.5359C26.7722 26.2997 27.0607 26.1223 27.3781 26.018L28.9221 25.514C29.2002 25.4199 29.4468 25.2503 29.6343 25.0244C29.8218 24.7984 29.9429 24.5247 29.9841 24.234C30.0416 23.8562 29.9613 23.4703 29.7579 23.1468C29.5545 22.8233 29.2415 22.5838 28.8761 22.472L27.3481 21.974C27.0318 21.8688 26.7443 21.6916 26.5082 21.4563C26.2722 21.2209 26.0941 20.9339 25.9881 20.618L25.4841 19.072C25.3766 18.7563 25.1714 18.483 24.8981 18.292C24.5906 18.0706 24.2143 17.966 23.8367 17.9972C23.4591 18.0284 23.105 18.1931 22.8381 18.462C22.6605 18.6386 22.527 18.8544 22.4481 19.092L21.9541 20.616C21.8518 20.9294 21.6786 21.215 21.4479 21.4506C21.2172 21.6861 20.9353 21.8652 20.6241 21.974L19.0781 22.478C18.7595 22.5851 18.4829 22.7901 18.2879 23.0638C18.0928 23.3375 17.9893 23.6659 17.9921 24.002C17.9935 24.3378 18.1008 24.6647 18.2986 24.9361C18.4965 25.2075 18.7748 25.4097 19.0941 25.514L20.6201 26.008C20.9381 26.116 21.2281 26.294 21.4641 26.53C21.7021 26.768 21.8781 27.056 21.9801 27.374L22.4861 28.922C22.5956 29.2349 22.7997 29.5061 23.0701 29.698Z" fill="#0B0B0B"/>
</svg>
