<svg width="32" height="32" viewBox="0 0 32 32" fill="none" xmlns="http://www.w3.org/2000/svg">
<path d="M8.57143 6.85185C8.57143 6.34106 8.76709 5.8512 9.11537 5.49002C9.46365 5.12884 9.93603 4.92593 10.4286 4.92593C10.9211 4.92593 11.3935 5.12884 11.7418 5.49002C12.0901 5.8512 12.2857 6.34106 12.2857 6.85185C12.2857 7.36264 12.0901 7.85251 11.7418 8.21369C11.3935 8.57487 10.9211 8.77778 10.4286 8.77778C9.93603 8.77778 9.46365 8.57487 9.11537 8.21369C8.76709 7.85251 8.57143 7.36264 8.57143 6.85185ZM10.4286 3C9.44348 3 8.49874 3.40582 7.80217 4.12818C7.10561 4.85054 6.71429 5.83028 6.71429 6.85185C6.71429 7.87343 7.10561 8.85316 7.80217 9.57552C8.49874 10.2979 9.44348 10.7037 10.4286 10.7037C11.4137 10.7037 12.3584 10.2979 13.055 9.57552C13.7515 8.85316 14.1429 7.87343 14.1429 6.85185C14.1429 5.83028 13.7515 4.85054 13.055 4.12818C12.3584 3.40582 11.4137 3 10.4286 3ZM5.32143 12.6296C4.70575 12.6296 4.11528 12.8833 3.67993 13.3347C3.24458 13.7862 3 14.3986 3 15.037V15.2778C3 15.5426 3 17.0544 3.97871 18.5133C4.68164 19.561 5.82007 20.4845 7.59921 20.9593C7.957 20.2475 8.52026 19.6695 9.21029 19.3059C7.04671 19.0641 6.01879 18.1821 5.50343 17.4136C5.08886 16.7837 4.86393 16.0404 4.85714 15.2778V15.037C4.85714 14.9093 4.90606 14.7869 4.99313 14.6966C5.0802 14.6063 5.19829 14.5556 5.32143 14.5556H10.8929C10.8929 13.8757 11.0164 13.2267 11.2411 12.6296H5.32143ZM28.0213 18.5133C27.3184 19.561 26.1799 20.4845 24.4008 20.9593C24.043 20.2475 23.4797 19.6695 22.7897 19.3059C24.9533 19.0641 25.9812 18.1821 26.4966 17.4136C26.9111 16.7837 27.1361 16.0404 27.1429 15.2778V15.037C27.1429 14.9093 27.0939 14.7869 27.0069 14.6966C26.9198 14.6063 26.8017 14.5556 26.6786 14.5556H21.1071C21.1071 13.8757 20.9836 13.2267 20.7589 12.6296H26.6786C27.2943 12.6296 27.8847 12.8833 28.3201 13.3347C28.7554 13.7862 29 14.3986 29 15.037V15.2778C29 15.5426 29 17.0544 28.0213 18.5133ZM19.7143 6.85185C19.7143 6.34106 19.9099 5.8512 20.2582 5.49002C20.6065 5.12884 21.0789 4.92593 21.5714 4.92593C22.064 4.92593 22.5363 5.12884 22.8846 5.49002C23.2329 5.8512 23.4286 6.34106 23.4286 6.85185C23.4286 7.36264 23.2329 7.85251 22.8846 8.21369C22.5363 8.57487 22.064 8.77778 21.5714 8.77778C21.0789 8.77778 20.6065 8.57487 20.2582 8.21369C19.9099 7.85251 19.7143 7.36264 19.7143 6.85185ZM21.5714 3C20.5863 3 19.6416 3.40582 18.945 4.12818C18.2485 4.85054 17.8571 5.83028 17.8571 6.85185C17.8571 7.87343 18.2485 8.85316 18.945 9.57552C19.6416 10.2979 20.5863 10.7037 21.5714 10.7037C22.5565 10.7037 23.5013 10.2979 24.1978 9.57552C24.8944 8.85316 25.2857 7.87343 25.2857 6.85185C25.2857 5.83028 24.8944 4.85054 24.1978 4.12818C23.5013 3.40582 22.5565 3 21.5714 3ZM16 12.6296C15.5075 12.6296 15.0351 12.8325 14.6868 13.1937C14.3385 13.5549 14.1429 14.0448 14.1429 14.5556C14.1429 15.0663 14.3385 15.5562 14.6868 15.9174C15.0351 16.2786 15.5075 16.4815 16 16.4815C16.4925 16.4815 16.9649 16.2786 17.3132 15.9174C17.6615 15.5562 17.8571 15.0663 17.8571 14.5556C17.8571 14.0448 17.6615 13.5549 17.3132 13.1937C16.9649 12.8325 16.4925 12.6296 16 12.6296ZM12.2857 14.5556C12.2857 13.534 12.677 12.5542 13.3736 11.8319C14.0702 11.1095 15.0149 10.7037 16 10.7037C16.9851 10.7037 17.9298 11.1095 18.6264 11.8319C19.323 12.5542 19.7143 13.534 19.7143 14.5556C19.7143 15.5771 19.323 16.5569 18.6264 17.2792C17.9298 18.0016 16.9851 18.4074 16 18.4074C15.0149 18.4074 14.0702 18.0016 13.3736 17.2792C12.677 16.5569 12.2857 15.5771 12.2857 14.5556ZM8.57143 22.7407C8.57143 22.1023 8.81601 21.4899 9.25136 21.0384C9.68671 20.587 10.2772 20.3333 10.8929 20.3333H21.1071C21.412 20.3333 21.7139 20.3956 21.9955 20.5166C22.2772 20.6376 22.5331 20.8149 22.7486 21.0384C22.9642 21.262 23.1352 21.5274 23.2519 21.8195C23.3685 22.1115 23.4286 22.4246 23.4286 22.7407V22.9815C23.4286 23.2463 23.4286 24.7582 22.4499 26.217C21.4284 27.7395 19.4877 29 16 29C12.5123 29 10.5716 27.7395 9.55014 26.217C8.57143 24.7582 8.57143 23.2473 8.57143 22.9815V22.7407ZM10.8929 22.2593C10.7697 22.2593 10.6516 22.31 10.5646 22.4003C10.4775 22.4906 10.4286 22.613 10.4286 22.7407V22.9815C10.4286 23.1404 10.4295 24.1563 11.0749 25.1173C11.6784 26.0177 12.9877 27.0741 16 27.0741C19.0123 27.0741 20.3216 26.0177 20.9251 25.1173C21.3397 24.4874 21.5646 23.7441 21.5714 22.9815V22.7407C21.5714 22.613 21.5225 22.4906 21.4354 22.4003C21.3484 22.31 21.2303 22.2593 21.1071 22.2593H10.8929Z" fill="#0B0B0B"/>
</svg>
