<svg width="117" height="105" viewBox="0 0 117 105" fill="none" xmlns="http://www.w3.org/2000/svg">
<path d="M114.258 34.0855C121.688 53.9287 109.384 77.1251 81.894 92.9961C54.4033 108.868 28.1659 107.924 14.6993 91.5651C11.5213 87.7081 1.61632 67.8651 2.06532 62.656C3.34582 47.814 29.3688 86.7871 66.0739 65.5951C106.047 42.5172 82.069 2.36685 95.561 8.67595C100.297 10.8917 112.503 29.406 114.258 34.0855Z" fill="#F6CFBB"/>
<path d="M35.2189 12.1529C8.2826 27.7046 -5.9127 53.5441 3.5123 69.869C12.9373 86.193 42.4143 86.822 69.3506 71.271C96.284 55.7207 110.481 29.8766 101.056 13.5521C91.631 -2.77253 62.1523 -3.39713 35.2189 12.1529ZM57.5089 50.7604C48.3464 56.0504 39.7459 58.3139 38.3026 55.8139C36.8592 53.314 43.1214 47.0004 52.2839 41.7104C61.4436 36.4221 70.0424 34.1557 71.4858 36.6556C72.932 39.1539 66.6715 45.4704 57.5089 50.7604Z" fill="#99E2A3"/>
<path d="M2.33687 64.3461C2.19347 68.4509 8.83767 81.7389 16.348 85.4209C27.8083 91.0439 28.1366 84.6459 33.463 83.4179C41.3953 81.5909 44.9697 86.6279 51.8369 86.2159C59.6119 85.7499 62.6155 82.8449 69.9369 75.7659C80.265 65.7809 91.487 67.5119 97.087 60.0911C101.681 54.0016 99.753 42.6286 102.49 39.5432C111.182 29.7446 103.65 11.453 91.621 9.1106C92.158 15.8405 90.795 41.9342 83.387 47.3892C75.974 52.843 53.3745 68.5659 40.3466 69.2209C27.3142 69.8749 13.4339 69.3399 11.1586 68.3059C8.88157 67.2689 2.33687 64.3461 2.33687 64.3461Z" fill="#99E2A3"/>
<path d="M48.364 34.921C37.5329 41.1743 30.8009 49.7876 33.3259 54.161C34.3076 55.8613 36.5508 56.6601 39.5533 56.6471C38.9745 56.4847 38.5359 56.2183 38.3026 55.8142C36.8592 53.3143 43.1214 47.0006 52.2839 41.7106C61.4436 36.4223 70.0425 34.1559 71.4858 36.6559C71.7191 37.06 71.7317 37.5685 71.5818 38.1554C73.0941 35.5617 73.527 33.218 72.5452 31.5177C70.0231 27.1426 59.195 28.6677 48.364 34.921Z" fill="#F6CFBB"/>
<path d="M16.0097 70.0279C15.3362 70.4209 14.5501 70.5769 13.7777 70.4699C13.0052 70.3619 12.2911 69.9989 11.7499 69.4379C11.2086 68.8759 10.8717 68.1489 10.7931 67.3729C10.7145 66.5969 10.8988 65.8179 11.3164 65.1589L15.9457 57.7903C16.1886 57.4024 16.5057 57.0663 16.8787 56.8012C17.2518 56.5362 17.6735 56.3474 18.1198 56.2457C18.566 56.144 19.0279 56.1313 19.479 56.2086C19.9301 56.2858 20.3615 56.4513 20.7485 56.6956C22.3779 57.7179 22.87 59.8702 21.8432 61.4984L17.2139 68.8669C16.9127 69.3459 16.4994 69.7449 16.0097 70.0279ZM63.3145 72.7159C62.1309 73.3989 60.6047 73.3489 59.4492 72.4609L54.3364 68.5379C53.9566 68.2659 53.6354 67.9209 53.3919 67.5219C53.1484 67.1229 52.9876 66.6799 52.9191 66.2179C52.8505 65.7559 52.8756 65.2839 52.9929 64.8321C53.1101 64.3799 53.3171 63.9559 53.6016 63.5853C53.886 63.2148 54.2421 62.9052 54.6487 62.6751C55.0552 62.4449 55.5039 62.2989 55.968 62.2457C56.4321 62.1925 56.9022 62.2332 57.3502 62.3654C57.7983 62.4976 58.2152 62.7185 58.5761 63.0151L63.689 66.9379C64.1439 67.2859 64.506 67.7399 64.7429 68.2619C64.9799 68.7829 65.0845 69.3549 65.0475 69.9269C65.0104 70.4979 64.8329 71.0519 64.5306 71.5379C64.2283 72.0249 63.8106 72.4289 63.3145 72.7159Z" fill="#E36E49"/>
<path d="M90.538 40.9092C90.006 41.2166 89.402 41.3776 88.788 41.3759C88.173 41.3741 87.57 41.2097 87.04 40.8992C86.509 40.5888 86.071 40.1434 85.768 39.6085C85.466 39.0735 85.31 38.4679 85.318 37.8534L85.392 30.4357C85.397 29.9783 85.492 29.5263 85.671 29.1055C85.851 28.6847 86.112 28.3034 86.438 27.9834C86.765 27.6633 87.152 27.4108 87.576 27.2402C88.001 27.0696 88.455 26.9842 88.912 26.989C89.37 26.9938 89.822 27.0887 90.242 27.2682C90.663 27.4477 91.044 27.7083 91.365 28.0351C91.685 28.362 91.937 28.7487 92.108 29.1731C92.278 29.5976 92.364 30.0515 92.359 30.5089L92.283 37.9237C92.27 39.2013 91.572 40.3125 90.538 40.9092Z" fill="#FF9C7D"/>
<path d="M82.627 15.5925C81.01 16.5259 78.872 15.909 77.873 14.3113C77.378 13.5235 77.213 12.5726 77.414 11.6643C77.615 10.756 78.165 9.96327 78.946 9.45757L82.376 7.27747C84.058 6.27887 86.151 6.73717 87.168 8.37117C88.19 10.0019 87.75 12.2534 86.121 13.2711L82.736 15.5292L82.627 15.5925ZM46.5944 20.5226C45.8739 20.9353 45.0298 21.0774 44.214 20.9233C43.3981 20.7691 42.664 20.3289 42.1438 19.6818C41.6235 19.0347 41.3513 18.2232 41.3761 17.3932C41.4008 16.5633 41.7209 15.7694 42.2788 15.1545L44.2283 13.0244C44.8521 12.3421 45.7215 11.9356 46.645 11.8944C47.5686 11.8531 48.4707 12.1803 49.153 12.8042C49.8352 13.4281 50.2417 14.2974 50.283 15.2209C50.3243 16.1445 49.997 17.0466 49.3732 17.7289L47.4237 19.859C47.1827 20.1212 46.903 20.3449 46.5944 20.5226Z" fill="#E36E49"/>
<path d="M32.6988 35.081C32.2456 35.3427 31.7266 35.5037 31.1703 35.5401L28.2537 35.7152C27.3537 35.733 26.4816 35.402 25.8201 34.7914C25.1585 34.1809 24.7587 33.3382 24.7044 32.4396C24.6501 31.541 24.9454 30.6562 25.5286 29.9705C26.1118 29.2847 26.9376 28.851 27.8333 28.7603L30.7498 28.5852C31.5322 28.5409 32.3067 28.7614 32.9483 29.2111C33.59 29.6609 34.0615 30.3137 34.2867 31.0643C34.5119 31.8148 34.4777 32.6194 34.1896 33.3481C33.9015 34.0768 33.3764 34.6873 32.6988 35.081ZM81.1071 58.247C80.6411 58.5155 80.1201 58.673 79.5831 58.7074L76.6681 58.8853C75.7531 58.9304 74.8571 58.6132 74.1741 58.0023C73.4921 57.3914 73.0771 56.5361 73.0201 55.6216C72.9637 54.7072 73.2701 53.8072 73.8721 53.1167C74.4741 52.4262 75.3241 52.0008 76.2381 51.9326L79.1521 51.7546C79.9361 51.7071 80.7121 51.9254 81.3561 52.3741C81.9991 52.8229 82.4731 53.4759 82.6991 54.2273C82.9251 54.9787 82.8911 55.7844 82.6021 56.514C82.3131 57.2436 81.7871 57.8542 81.1071 58.247Z" fill="#EFEBE9"/>
<path d="M37.7905 74.381C37.2912 74.669 36.7282 74.829 36.152 74.845C35.5758 74.862 35.0044 74.736 34.4891 74.478C33.9738 74.219 33.5306 73.837 33.1993 73.366C32.868 72.894 32.6589 72.347 32.5909 71.775L32.1992 68.483C32.09 67.566 32.3498 66.642 32.9214 65.916C33.493 65.19 34.3296 64.7213 35.2471 64.6121C36.1645 64.503 37.0878 64.7628 37.8137 65.334C38.5397 65.906 39.0088 66.743 39.1179 67.66L39.5097 70.952C39.6773 72.375 38.9625 73.704 37.7905 74.381ZM66.3257 19.8586C65.633 20.2652 64.821 20.4196 64.0274 20.2957C63.2338 20.1718 62.5076 19.7772 61.9718 19.1788C61.436 18.5804 61.1236 17.8151 61.0878 17.0128C61.0519 16.2104 61.2947 15.4203 61.775 14.7765L63.2758 12.736C64.4191 11.1829 66.6007 10.8549 68.1446 11.9957C68.8878 12.5443 69.3833 13.3651 69.5223 14.2783C69.6614 15.1915 69.4328 16.1226 68.8866 16.8675L67.3857 18.9079C67.102 19.2948 66.741 19.6185 66.3257 19.8586ZM17.2284 48.0395C17.0032 48.1695 16.7601 48.2752 16.505 48.3532L14.6544 48.9213C13.7836 49.1501 12.8581 49.0331 12.0715 48.5949C11.285 48.1568 10.6985 47.4313 10.4347 46.5704C10.171 45.7096 10.2505 44.7801 10.6565 43.9765C11.0626 43.1729 11.7638 42.5576 12.6133 42.2593L14.4639 41.6912C15.2809 41.4459 16.1595 41.5085 16.9335 41.8674C17.7074 42.2262 18.3229 42.8563 18.6635 43.6385C19.0041 44.4206 19.0462 45.3005 18.7817 46.1115C18.5172 46.9226 17.9646 47.6085 17.2284 48.0395Z" fill="#FF9C7D"/>
</svg>
