<svg width="32" height="32" viewBox="0 0 32 32" fill="none" xmlns="http://www.w3.org/2000/svg">
<path d="M10.7959 21.614C11.1486 21.8623 11.5696 21.9951 12.0009 21.994C12.4321 21.9929 12.8525 21.858 13.2039 21.608C13.5599 21.348 13.8299 20.988 13.9779 20.572L14.8719 17.826C15.1008 17.1374 15.4869 16.5116 15.9996 15.9982C16.5123 15.4847 17.1376 15.0978 17.8259 14.868L20.6079 13.968C21.0192 13.8191 21.3734 13.5449 21.6206 13.184C21.8679 12.8231 21.9956 12.3937 21.9859 11.9564C21.9762 11.5191 21.8295 11.0958 21.5665 10.7463C21.3035 10.3967 20.9374 10.1385 20.5199 10.008L17.7699 9.11199C17.0809 8.88354 16.4546 8.4976 15.9408 7.98483C15.427 7.47205 15.0397 6.84655 14.8099 6.15799L13.9059 3.38199C13.7603 2.97302 13.4909 2.61958 13.1351 2.37086C12.7793 2.12213 12.3549 1.99048 11.9208 1.99422C11.4867 1.99796 11.0646 2.1369 10.7131 2.39173C10.3617 2.64655 10.0984 3.00457 9.9599 3.41599L9.0459 6.21599C8.81698 6.88601 8.43876 7.49523 7.93983 7.99763C7.44091 8.50002 6.83431 8.88244 6.1659 9.11599L3.3859 10.01C2.97709 10.1559 2.62384 10.4254 2.37519 10.7812C2.12655 11.137 1.99484 11.5613 1.99836 11.9954C2.00188 12.4294 2.14045 12.8516 2.39483 13.2033C2.64921 13.555 3.00678 13.8188 3.4179 13.958L6.1659 14.848C6.85781 15.0781 7.48617 15.4672 8.00056 15.984C8.51495 16.5008 8.90105 17.131 9.1279 17.824L10.0319 20.606C10.1759 21.014 10.4439 21.366 10.7959 21.614ZM10.9659 6.78399L12.0199 4.02999L12.8999 6.78399C13.2271 7.77007 13.7804 8.66596 14.5155 9.40008C15.2507 10.1342 16.1474 10.6862 17.1339 11.012L19.9459 12.072L17.1819 12.966C16.1964 13.2946 15.3009 13.8483 14.5667 14.5833C13.8324 15.3182 13.2796 16.2141 12.9519 17.2L11.9059 19.956L11.0079 17.2C10.6855 16.2142 10.1376 15.3171 9.4079 14.58C8.67046 13.8432 7.77229 13.2873 6.7839 12.956L4.0279 11.912L6.7999 11.012C7.7732 10.675 8.65596 10.1187 9.3799 9.38599C10.0983 8.65038 10.6406 7.75942 10.9659 6.78399ZM23.0699 29.7C23.2745 29.8438 23.5097 29.9381 23.757 29.9753C24.0043 30.0125 24.2569 29.9917 24.4947 29.9145C24.7326 29.8373 24.9492 29.7058 25.1275 29.5304C25.3058 29.355 25.4408 29.1406 25.5219 28.904L26.0179 27.38C26.1239 27.064 26.3039 26.776 26.5379 26.54C26.7739 26.3 27.0619 26.124 27.3779 26.02L28.9219 25.516C29.2405 25.406 29.5163 25.1983 29.7098 24.9223C29.9033 24.6464 30.0048 24.3163 29.9997 23.9793C29.9946 23.6423 29.8832 23.3155 29.6814 23.0456C29.4796 22.7756 29.1977 22.5763 28.8759 22.476L27.3479 21.976C27.0316 21.8709 26.7441 21.6936 26.5081 21.4583C26.2721 21.223 26.094 20.936 25.9879 20.62L25.4839 19.074C25.3757 18.756 25.1701 18.4802 24.8964 18.2855C24.6226 18.0909 24.2946 17.9873 23.9587 17.9896C23.6228 17.9918 23.2961 18.0996 23.025 18.2979C22.7538 18.4961 22.5519 18.7746 22.4479 19.094L21.9539 20.618C21.8521 20.9317 21.679 21.2175 21.4483 21.4531C21.2175 21.6887 20.9354 21.8677 20.6239 21.976L19.0779 22.48C18.7598 22.5878 18.4837 22.793 18.2887 23.0665C18.0937 23.34 17.9897 23.6679 17.9915 24.0038C17.9933 24.3396 18.1007 24.6664 18.2986 24.9379C18.4964 25.2093 18.7747 25.4115 19.0939 25.516L20.6199 26.01C20.9399 26.118 21.2279 26.296 21.4639 26.532C21.7019 26.77 21.8779 27.058 21.9799 27.376L22.4859 28.924C22.5955 29.2369 22.7995 29.5081 23.0699 29.7ZM21.2439 24.114L20.8859 23.996L21.2539 23.868C21.8603 23.6579 22.4103 23.311 22.8611 22.8543C23.312 22.3975 23.6517 21.8431 23.8539 21.234L23.9699 20.878L24.0899 21.24C24.2938 21.8531 24.6379 22.4102 25.0948 22.8671C25.5517 23.324 26.1088 23.6681 26.7219 23.872L27.1119 23.998L26.7519 24.118C26.1374 24.3222 25.5792 24.6672 25.1218 25.1256C24.6645 25.584 24.3207 26.143 24.1179 26.758L23.9999 27.12L23.8839 26.76C23.6815 26.1432 23.3372 25.5825 22.8787 25.1229C22.4201 24.6634 21.8602 24.3178 21.2439 24.114Z" fill="#0B0B0B"/>
</svg>
