<svg width="32" height="32" viewBox="0 0 32 32" fill="none" xmlns="http://www.w3.org/2000/svg">
<path d="M3 6.54545C3 5.60514 3.37354 4.70334 4.03844 4.03844C4.70334 3.37354 5.60514 3 6.54545 3H19.9394C20.8797 3 21.7815 3.37354 22.4464 4.03844C23.1113 4.70334 23.4848 5.60514 23.4848 6.54545V18.7576H27C28.1046 18.7576 29 19.653 29 20.7576V23.8788C29 25.237 28.4604 26.5396 27.5 27.5C26.5396 28.4604 25.237 29 23.8788 29H8.12121C6.76298 29 5.46038 28.4604 4.49997 27.5C3.53955 26.5396 3 25.237 3 23.8788V6.54545ZM23.4848 21.1212V26.6364H23.8788C24.6101 26.6364 25.3115 26.3458 25.8287 25.8287C26.3458 25.3115 26.6364 24.6101 26.6364 23.8788V22.1212C26.6364 21.5689 26.1886 21.1212 25.6364 21.1212H23.4848ZM21.1212 26.6364V6.54545C21.1212 6.23202 20.9967 5.93142 20.7751 5.70978C20.5534 5.48815 20.2528 5.36364 19.9394 5.36364H6.54545C6.23202 5.36364 5.93142 5.48815 5.70978 5.70978C5.48815 5.93142 5.36364 6.23202 5.36364 6.54545V23.8788C5.36364 25.401 6.59903 26.6364 8.12121 26.6364H21.1212Z" fill="#0B0B0B"/>
<path d="M7.72729 10.4849C7.72729 10.1715 7.85181 9.87088 8.07344 9.64925C8.29508 9.42761 8.59568 9.3031 8.90911 9.3031H17.5758C17.8892 9.3031 18.1898 9.42761 18.4115 9.64925C18.6331 9.87088 18.7576 10.1715 18.7576 10.4849C18.7576 10.7984 18.6331 11.099 18.4115 11.3206C18.1898 11.5422 17.8892 11.6667 17.5758 11.6667H8.90911C8.59568 11.6667 8.29508 11.5422 8.07344 11.3206C7.85181 11.099 7.72729 10.7984 7.72729 10.4849ZM7.72729 16.0001C7.72729 15.6866 7.85181 15.386 8.07344 15.1644C8.29508 14.9428 8.59568 14.8183 8.90911 14.8183H17.5758C17.8892 14.8183 18.1898 14.9428 18.4115 15.1644C18.6331 15.386 18.7576 15.6866 18.7576 16.0001C18.7576 16.3135 18.6331 16.6141 18.4115 16.8357C18.1898 17.0574 17.8892 17.1819 17.5758 17.1819H8.90911C8.59568 17.1819 8.29508 17.0574 8.07344 16.8357C7.85181 16.6141 7.72729 16.3135 7.72729 16.0001ZM7.72729 21.5152C7.72729 21.2018 7.85181 20.9012 8.07344 20.6796C8.29508 20.4579 8.59568 20.3334 8.90911 20.3334H12.8485C13.1619 20.3334 13.4625 20.4579 13.6842 20.6796C13.9058 20.9012 14.0303 21.2018 14.0303 21.5152C14.0303 21.8287 13.9058 22.1293 13.6842 22.3509C13.4625 22.5725 13.1619 22.697 12.8485 22.697H8.90911C8.59568 22.697 8.29508 22.5725 8.07344 22.3509C7.85181 22.1293 7.72729 21.8287 7.72729 21.5152Z" fill="#0B0B0B"/>
</svg>
