<svg width="32" height="32" viewBox="0 0 32 32" fill="none" xmlns="http://www.w3.org/2000/svg">
<path d="M3 6.25C3 5.38805 3.34241 4.5614 3.9519 3.9519C4.5614 3.34241 5.38805 3 6.25 3H19.75C20.612 3 21.4386 3.34241 22.0481 3.9519C22.6576 4.5614 23 5.38805 23 6.25V19H27C28.1046 19 29 19.8954 29 21V24.5C29 25.6935 28.5259 26.8381 27.682 27.682C26.8381 28.5259 25.6935 29 24.5 29H7.5C6.30653 29 5.16193 28.5259 4.31802 27.682C3.47411 26.8381 3 25.6935 3 24.5V6.25ZM23 27H24.5C25.163 27 25.7989 26.7366 26.2678 26.2678C26.7366 25.7989 27 25.163 27 24.5V22C27 21.4477 26.5523 21 26 21H23V27ZM8 10C8 10.2652 8.10536 10.5196 8.29289 10.7071C8.48043 10.8946 8.73478 11 9 11H17C17.2652 11 17.5196 10.8946 17.7071 10.7071C17.8946 10.5196 18 10.2652 18 10C18 9.73478 17.8946 9.48043 17.7071 9.29289C17.5196 9.10536 17.2652 9 17 9H9C8.73478 9 8.48043 9.10536 8.29289 9.29289C8.10536 9.48043 8 9.73478 8 10ZM9 15C8.73478 15 8.48043 15.1054 8.29289 15.2929C8.10536 15.4804 8 15.7348 8 16C8 16.2652 8.10536 16.5196 8.29289 16.7071C8.48043 16.8946 8.73478 17 9 17H17C17.2652 17 17.5196 16.8946 17.7071 16.7071C17.8946 16.5196 18 16.2652 18 16C18 15.7348 17.8946 15.4804 17.7071 15.2929C17.5196 15.1054 17.2652 15 17 15H9ZM8 22C8 22.2652 8.10536 22.5196 8.29289 22.7071C8.48043 22.8946 8.73478 23 9 23H13C13.2652 23 13.5196 22.8946 13.7071 22.7071C13.8946 22.5196 14 22.2652 14 22C14 21.7348 13.8946 21.4804 13.7071 21.2929C13.5196 21.1054 13.2652 21 13 21H9C8.73478 21 8.48043 21.1054 8.29289 21.2929C8.10536 21.4804 8 21.7348 8 22Z" fill="#0B0B0B"/>
</svg>
