<svg width="26" height="26" viewBox="0 0 26 26" fill="none" xmlns="http://www.w3.org/2000/svg">
<g clip-path="url(#clip0_9271_2519)">
<path d="M4.56469 25.9902C5.89049 25.9902 9.05818 24.4798 11.0514 23.0087C11.2471 22.8518 11.4073 22.8027 11.5674 22.8027C11.8166 22.8322 12.0568 22.8518 12.306 22.8518C20.2875 22.8518 25.7776 17.7027 25.7776 11.4259C25.7776 5.10977 20.0562 0 12.8932 0C5.72143 0 0 5.10977 0 11.4259C0 15.4568 2.2512 19.017 5.8638 21.1158C6.05066 21.2237 6.10403 21.41 6.00617 21.616C5.4189 22.7046 4.38673 23.9992 3.94183 24.6171C3.49693 25.2448 3.71048 25.9902 4.56469 25.9902Z" fill="black" fill-opacity="0.85"/>
</g>
<defs>
<clipPath id="clip0_9271_2519">
<rect width="26" height="26" fill="white"/>
</clipPath>
</defs>
</svg>
