<svg width="26" height="26" viewBox="0 0 26 26" fill="none" xmlns="http://www.w3.org/2000/svg">
<g clip-path="url(#clip0_9542_8031)">
<circle cx="13" cy="13" r="13" fill="#E36E49"/>
<path d="M18.9794 7.83121L17.8575 7.06934C17.7086 6.96908 17.5261 6.93169 17.3497 6.96528C17.1733 6.99887 17.0173 7.10073 16.9157 7.24871L11.4238 15.3481L8.89942 12.8237C8.77188 12.6976 8.59974 12.6268 8.42036 12.6268C8.24097 12.6268 8.06883 12.6976 7.94129 12.8237L6.98317 13.7837C6.92016 13.8466 6.87018 13.9214 6.83608 14.0036C6.80198 14.0859 6.78442 14.174 6.78442 14.2631C6.78442 14.3521 6.80198 14.4403 6.83608 14.5226C6.87018 14.6048 6.92016 14.6795 6.98317 14.7425L10.8638 18.625C11.0819 18.8418 11.4232 19.0093 11.7307 19.0093C12.0382 19.0093 12.3482 18.8156 12.5475 18.5256L19.16 8.77184C19.2606 8.62308 19.2981 8.44052 19.2642 8.26418C19.2303 8.08785 19.1279 7.93214 18.9794 7.83121Z" fill="#EAEAEA"/>
</g>
<defs>
<clipPath id="clip0_9542_8031">
<rect width="26" height="26" fill="white"/>
</clipPath>
</defs>
</svg>
