<svg width="32" height="32" viewBox="0 0 32 32" fill="none" xmlns="http://www.w3.org/2000/svg">
<path d="M10.4286 10.7037C11.4137 10.7037 12.3584 10.2979 13.055 9.57552C13.7515 8.85316 14.1429 7.87343 14.1429 6.85185C14.1429 5.83028 13.7515 4.85054 13.055 4.12818C12.3584 3.40582 11.4137 3 10.4286 3C9.44348 3 8.49874 3.40582 7.80217 4.12818C7.10561 4.85054 6.71429 5.83028 6.71429 6.85185C6.71429 7.87343 7.10561 8.85316 7.80217 9.57552C8.49874 10.2979 9.44348 10.7037 10.4286 10.7037ZM3 15.037C3 14.3986 3.24458 13.7862 3.67993 13.3347C4.11528 12.8833 4.70575 12.6296 5.32143 12.6296H11.2411C11.0105 13.2436 10.8924 13.8967 10.8929 14.5556C10.8929 16.3467 11.7499 17.9307 13.0629 18.8889H10.8929C10.2138 18.8888 9.54774 19.0817 8.96705 19.4468C8.38636 19.8118 7.91327 20.3349 7.59921 20.9593C5.82007 20.4845 4.68164 19.561 3.97871 18.5133C3 17.0544 3 15.5436 3 15.2778V15.037ZM24.4008 20.9593C26.1799 20.4845 27.3184 19.561 28.0213 18.5133C29 17.0544 29 15.5426 29 15.2778V15.037C29 14.3986 28.7554 13.7862 28.3201 13.3347C27.8847 12.8833 27.2943 12.6296 26.6786 12.6296H20.7589C20.9836 13.2267 21.1071 13.8757 21.1071 14.5556C21.1071 16.3467 20.2501 17.9307 18.9371 18.8889H21.1071C21.7862 18.8888 22.4523 19.0817 23.0329 19.4468C23.6136 19.8118 24.0867 20.3349 24.4008 20.9593ZM25.2857 6.85185C25.2857 7.87343 24.8944 8.85316 24.1978 9.57552C23.5013 10.2979 22.5565 10.7037 21.5714 10.7037C20.5863 10.7037 19.6416 10.2979 18.945 9.57552C18.2485 8.85316 17.8571 7.87343 17.8571 6.85185C17.8571 5.83028 18.2485 4.85054 18.945 4.12818C19.6416 3.40582 20.5863 3 21.5714 3C22.5565 3 23.5013 3.40582 24.1978 4.12818C24.8944 4.85054 25.2857 5.83028 25.2857 6.85185ZM8.57143 22.7407C8.57143 22.1023 8.81601 21.4899 9.25136 21.0384C9.68671 20.587 10.2772 20.3333 10.8929 20.3333H21.1071C21.412 20.3333 21.7139 20.3956 21.9955 20.5166C22.2772 20.6376 22.5331 20.8149 22.7486 21.0384C22.9642 21.262 23.1352 21.5274 23.2519 21.8195C23.3685 22.1115 23.4286 22.4246 23.4286 22.7407V22.9815C23.4286 23.2463 23.4286 24.7582 22.4499 26.217C21.4284 27.7395 19.4877 29 16 29C12.5123 29 10.5716 27.7395 9.55014 26.217C8.57143 24.7582 8.57143 23.2473 8.57143 22.9815V22.7407ZM16 18.4074C16.9851 18.4074 17.9298 18.0016 18.6264 17.2792C19.323 16.5569 19.7143 15.5771 19.7143 14.5556C19.7143 13.534 19.323 12.5542 18.6264 11.8319C17.9298 11.1095 16.9851 10.7037 16 10.7037C15.0149 10.7037 14.0702 11.1095 13.3736 11.8319C12.677 12.5542 12.2857 13.534 12.2857 14.5556C12.2857 15.5771 12.677 16.5569 13.3736 17.2792C14.0702 18.0016 15.0149 18.4074 16 18.4074Z" fill="#0B0B0B"/>
</svg>
